<?xml version="1.0" encoding="utf-8"?>
<!-- Generator: Adobe Illustrator 23.0.1, SVG Export Plug-In . SVG Version: 6.00 Build 0)  -->
<svg version="1.1" id="Layer_1" xmlns="http://www.w3.org/2000/svg" xmlns:xlink="http://www.w3.org/1999/xlink" x="0px" y="0px"
	 viewBox="0 0 349.1 472.8" style="enable-background:new 0 0 349.1 472.8;" xml:space="preserve">
<style type="text/css">
	.st0{fill:#E03500;stroke:#FFFFFF;stroke-miterlimit:10;}
	.st1{fill:#FF4500;}
	.st2{fill:#436B1C;}
	.st3{fill:#88C057;}
	.st4{fill:#EEAF4B;}
	.st5{fill:#ED3F32;}
	.st6{fill:#A46F3E;}
	.st7{fill:#DAE7EF;}
	.st8{fill:#FFFFFF;}
	.st9{fill:#FBD490;}
	.st10{fill:#E0B877;}
</style>
<g>
	<g>
		<path class="st0" d="M175.5,0C81,0,4.2,76.8,4.2,171.2c0,117.2,153.2,289.2,159.8,296.5c6.1,6.8,16.8,6.8,22.9,0
			c6.5-7.3,159.8-179.3,159.8-296.5C346.7,76.8,269.9,0,175.5,0z"/>
	</g>
</g>
<g>
	<g>
		<path class="st1" d="M175.6,10.5C86,10.5,13.2,83.4,13.2,173c0,111.2,145.4,274.4,151.6,281.3c5.8,6.5,16,6.5,21.8,0
			c6.2-6.9,151.6-170.1,151.6-281.3C338.1,83.4,265.2,10.5,175.6,10.5z"/>
	</g>
</g>
<g>
	<path class="st2" d="M115.6,167c-1.3,0-2.6-0.7-3.4-1.9c-2.4-3.9-7-8.5-12.2-8.3c-2.2-0.1-4-1.7-4.1-3.8c-0.1-2.2,1.6-4,3.8-4.1
		c8.3-0.2,15.4,6.1,19.1,12.1c1.1,1.9,0.6,4.3-1.3,5.4C117,166.8,116.3,167,115.6,167z"/>
	<g>
		<path class="st3" d="M196.5,114.3c-0.5-7.7-6.9-13.8-14.8-13.8c0,0,0,0-0.1,0c0.1-1.2,0.1-2.4-0.3-3.7c-1.1-3.6-4.2-6.4-8-6.8
			c-3.1-0.4-5.9,0.7-7.9,2.7c-1.9-1.7-4.3-2.8-7.1-2.8c-5.8,0-10.6,4.7-10.6,10.6c0,0,0,0,0,0.1c-7.1,0.5-12.7,6.5-12.7,13.7
			c0,1.1,0.1,2.2,0.4,3.2c-8.5,0.4-15.2,7.3-15.2,15.9c0,2.9,0.8,5.6,2.1,7.9c-2.6,2.1-4.3,5.4-4.3,9c0,3.3,1.4,6.3,3.6,8.4
			c9.5-7.8,19.6,18.3,31.4,39.1c3.9,6.9,46.3-0.5,49.6,3.8c3.8-3.5,6.3-63.6,6.4-68.9C209.5,124.2,204.1,117,196.5,114.3z"/>
	</g>
	<path class="st4" d="M201.9,193.2l2.8-1.7c5.2-3.1,11.7-3.1,17,0l2.8,1.7c5.2,3.1,11.7,3.1,17,0l8-3.5c1.2-3.3,2-5.6,2.3-6.7
		c7.4-23.9,12.2-49.1,12.9-74.2c0.3-10.1-8.1-25.9-22-18.7c-13.6,7-23.4,34-30.3,46.8c-9.8,18.2-17.5,38-23,58.2
		C193.6,196.1,198.1,195.5,201.9,193.2z"/>
	<path class="st5" d="M99.1,189.1l5.3,3.2c6.1,3.7,13.7,3.7,19.9,0l1.4-0.8c5.2-3.1,11.7-3.1,17,0l2.8,1.7c3.1,1.8,6.6,2.6,10,2.2
		c2.5-8.2,1.7-18.4-2.2-25.3c-13.2-23.3-24.2-18.5-34.7-8.4c-2,1.9-4.5,3.4-7.2,4.1c-11.6,3.3-20.1,8.7-15.3,23.5
		C96.9,188.7,98.1,188.5,99.1,189.1z"/>
	<path class="st6" d="M212,184.6c-0.4,0-0.9-0.1-1.3-0.2c-2.1-0.7-3.2-3-2.5-5c2.6-7.8,11.1-11.9,18.9-9.3c3.6,1.2,7.6-0.7,8.8-4.4
		c0.7-2.1,2.9-3.2,5-2.5c2.1,0.7,3.2,3,2.5,5c-2.6,7.8-11.1,11.9-18.9,9.3c-3.6-1.2-7.6,0.7-8.8,4.4
		C215.2,183.6,213.6,184.6,212,184.6z"/>
	<path class="st6" d="M221.3,157c-0.4,0-0.9-0.1-1.3-0.2c-2.1-0.7-3.2-3-2.5-5c1.3-3.8,3.9-6.8,7.5-8.6c3.6-1.8,7.6-2,11.4-0.7
		c3.6,1.2,7.6-0.7,8.8-4.4c0.7-2.1,2.9-3.2,5-2.5c2.1,0.7,3.2,3,2.5,5c-2.6,7.8-11.1,11.9-18.9,9.3c-1.8-0.6-3.7-0.5-5.3,0.3
		s-2.9,2.2-3.5,4C224.5,156,223,157,221.3,157z"/>
	<path class="st6" d="M230.7,129.5c-0.4,0-0.9-0.1-1.3-0.2c-2.1-0.7-3.2-3-2.5-5c2.3-6.8,9.7-10.5,16.6-8.2c1.3,0.4,2.7,0.4,3.9-0.2
		c1.2-0.6,2.2-1.7,2.6-3c0.7-2.1,2.9-3.2,5-2.5c2.1,0.7,3.2,3,2.5,5c-1.1,3.3-3.5,6-6.6,7.5c-3.1,1.5-6.7,1.8-10,0.6
		c-2.7-0.9-5.6,0.5-6.5,3.2C233.9,128.4,232.3,129.5,230.7,129.5z"/>
	<g>
		<path class="st7" d="M163.7,144c-3.7,5-9.6,10.9-7.4,21.2l6.1,27.9h0l2.8-1.7c5.2-3.1,11.7-3.1,17,0l2.8,1.7
			c2.3,1.4,4.5,1.8,4.5,1.8c4.1-15.1,9.5-30,16-44.2c-3.1-7.7-9.6-10.2-14.3-12.8c0,0-0.1,0-0.1,0c-3-1.7-3.2-5.8-0.9-8.4
			c0.9-1,1.3-2.5,1-3.9l-0.5-2.2c-0.5-2.4-2.9-3.9-5.3-3.4l-24,5.2c-2.4,0.5-3.9,2.9-3.4,5.3l0.5,2.2c0.3,1.5,1.3,2.6,2.6,3.1
			c2.9,1.3,4.7,4.5,3.2,7.3C164,143.5,163.8,143.7,163.7,144z"/>
	</g>
	<path class="st8" d="M188.9,131.4l-27.2,5.9c-3,0.7-6-1.3-6.7-4.3l-0.4-1.8c-0.7-3,1.3-6,4.3-6.7l27.2-5.9c3-0.7,6,1.3,6.7,4.3
		l0.4,1.8C193.8,127.7,191.9,130.7,188.9,131.4z"/>
	<path class="st9" d="M256.4,188.4l-6.9,99c-0.5,9.9-8.7,17.6-18.6,17.6h-111c-9.9,0-18.1-7.8-18.6-17.6l-6.7-95.7
		c-0.1-2.3,2.3-3.7,4.3-2.6l5.3,3.2c6.1,3.7,13.7,3.7,19.9,0l1.4-0.8c5.2-3.1,11.7-3.1,17,0l2.8,1.7c5.2,3.1,11.7,3.1,17,0l2.8-1.7
		c5.2-3.1,11.7-3.1,17,0l2.8,1.7c5.2,3.1,11.7,3.1,17,0l2.8-1.7c5.2-3.1,11.7-3.1,17,0l2.8,1.7c5.2,3.1,11.7,3.1,17,0l13.4-6
		C255.5,186.9,256.4,187.5,256.4,188.4z"/>
	<path class="st10" d="M142.1,254.4h-27.7c-2.2,0-4-1.8-4-4c0-2.2,1.8-4,4-4h27.7c2.2,0,4,1.8,4,4
		C146,252.6,144.2,254.4,142.1,254.4z"/>
	<path class="st10" d="M150,270.2h-35.6c-2.2,0-4-1.8-4-4c0-2.2,1.8-4,4-4H150c2.2,0,4,1.8,4,4C153.9,268.4,152.2,270.2,150,270.2z"
		/>
	<path class="st10" d="M157.9,286h-43.5c-2.2,0-4-1.8-4-4c0-2.2,1.8-4,4-4h43.5c2.2,0,4,1.8,4,4C161.8,284.2,160.1,286,157.9,286z"
		/>
	<path class="st10" d="M181.6,286h-7.9c-2.2,0-4-1.8-4-4c0-2.2,1.8-4,4-4h7.9c2.2,0,4,1.8,4,4C185.6,284.2,183.8,286,181.6,286z"/>
</g>
</svg>
